<?xml version="1.0" standalone="no"?><!DOCTYPE svg PUBLIC "-//W3C//DTD SVG 1.1//EN" "http://www.w3.org/Graphics/SVG/1.1/DTD/svg11.dtd"><svg class="icon" width="200px" height="200.00px" viewBox="0 0 1024 1024" version="1.1" xmlns="http://www.w3.org/2000/svg"><path d="M518.1 901c1.7 5 2.1 10.4 0.7 16.6-2.8 12.2-14 20.6-26.3 20.6h-146c-11.3 0-21.5-7.1-25.4-18.1l-75-207.3c-4.5-12.4 4.5-25.7 17.4-25.7H445c11.3 0 21.3 7.9 24.1 19.2l49 194.7z m355.7-538.5v180.1c21.7-24.1 32.8-55.6 32.8-90s-11.1-65.9-32.8-90.1z m86.1 90.1c0 68.4-34.8 128.6-87.1 162.9V793c0 8.6-4 17-11 21.8-4.5 3-8.5 4.3-13.8 4.3-3.6 0-6.5-1.3-9.9-2.8L475.3 657.9c-19-8.3-31.3-27.5-31.3-48.7V295c0-21.3 12.4-40.5 31.4-48.7L837.7 89.1c8.4-3.6 16.4-2.7 24 2.5 7.2 5 11.1 13.8 11.1 22.7v175.4c52.3 34.3 87.1 94.5 87.1 162.9z m-896-4.7c0-96 75.7-173.7 169-173.7h125.9c17 0 30.8 14.2 30.8 31.7v293.7c0 17.5-13.8 31.7-30.8 31.7H230.7c-92.1 0-166.8-76.8-166.8-171.4v-12z" /></svg>