<?xml version="1.0" standalone="no"?><!DOCTYPE svg PUBLIC "-//W3C//DTD SVG 1.1//EN" "http://www.w3.org/Graphics/SVG/1.1/DTD/svg11.dtd"><svg class="icon" width="200px" height="200.00px" viewBox="0 0 1024 1024" version="1.1" xmlns="http://www.w3.org/2000/svg"><path d="M768 213.333333V128a42.666667 42.666667 0 0 0-85.333333 0v85.333333H341.333333V128a42.666667 42.666667 0 0 0-85.333333 0v85.333333H85.333333v682.666667h853.333334V213.333333z m85.333333 597.333334H170.666667V298.666667h682.666666zM384 426.666667H298.666667v85.333333h85.333333z m170.666667 0h-85.333334v85.333333h85.333334z m170.666666 0h-85.333333v85.333333h85.333333z m-341.333333 170.666666H298.666667v85.333334h85.333333z m170.666667 0h-85.333334v85.333334h85.333334z m170.666666 0h-85.333333v85.333334h85.333333z" /></svg>