<?xml version="1.0" standalone="no"?><!DOCTYPE svg PUBLIC "-//W3C//DTD SVG 1.1//EN" "http://www.w3.org/Graphics/SVG/1.1/DTD/svg11.dtd"><svg class="icon" width="200px" height="200.00px" viewBox="0 0 1024 1024" version="1.1" xmlns="http://www.w3.org/2000/svg"><path d="M909.834343 943.579798H114.036364c-36.589899 0-66.327273-29.737374-66.327273-66.327273V612.072727h331.636364c0 36.589899 29.737374 66.327273 66.327272 66.327273h132.654546c36.589899 0 66.327273-29.737374 66.327272-66.327273h331.636364v265.309091c-0.129293 36.589899-29.737374 66.19798-66.456566 66.19798z m-331.50707-464.161616H445.672727c-36.589899 0-66.327273 29.737374-66.327272 66.327273H47.709091V280.436364c0-36.589899 29.737374-66.327273 66.327273-66.327273h198.981818v-66.327273c0-36.589899 29.737374-66.327273 66.327273-66.327273h265.30909C681.244444 81.454545 710.981818 111.191919 710.981818 147.781818v66.327273h198.981818c36.589899 0 66.327273 29.737374 66.327273 66.327273v265.309091H644.654545c0-36.719192-29.737374-66.327273-66.327272-66.327273z m0-331.636364H445.672727c-36.589899 0-66.327273 29.737374-66.327272 66.327273h265.30909c0-36.589899-29.737374-66.327273-66.327272-66.327273z" /></svg>